<svg preserveAspectRatio="none" width="100%" height="100%" overflow="visible" style="display: block;" viewBox="0 0 25 25" fill="none" xmlns="http://www.w3.org/2000/svg">
<path id="Vector" fill-rule="evenodd" clip-rule="evenodd" d="M12.5 25C15.8152 25 18.9946 23.683 21.3388 21.3388C23.683 18.9946 25 15.8152 25 12.5C25 9.18479 23.683 6.00537 21.3388 3.66117C18.9946 1.31696 15.8152 0 12.5 0C9.18479 0 6.00537 1.31696 3.66117 3.66117C1.31696 6.00537 0 9.18479 0 12.5C0 15.8152 1.31696 18.9946 3.66117 21.3388C6.00537 23.683 9.18479 25 12.5 25ZM18.2922 11.3953L13.6047 6.70781C13.31 6.42319 12.9153 6.2657 12.5056 6.26926C12.0959 6.27282 11.704 6.43715 11.4143 6.72685C11.1246 7.01655 10.9603 7.40844 10.9568 7.81812C10.9532 8.22781 11.1107 8.6225 11.3953 8.91719L13.4156 10.9375H7.8125C7.3981 10.9375 7.00067 11.1021 6.70765 11.3951C6.41462 11.6882 6.25 12.0856 6.25 12.5C6.25 12.9144 6.41462 13.3118 6.70765 13.6049C7.00067 13.8979 7.3981 14.0625 7.8125 14.0625H13.4156L11.3953 16.0828C11.2461 16.2269 11.127 16.3994 11.0452 16.59C10.9633 16.7806 10.9202 16.9857 10.9184 17.1931C10.9166 17.4006 10.9561 17.6063 11.0347 17.7984C11.1132 17.9904 11.2292 18.1648 11.3759 18.3116C11.5227 18.4583 11.6971 18.5743 11.8891 18.6528C12.0812 18.7314 12.2869 18.7709 12.4944 18.7691C12.7018 18.7673 12.9069 18.7242 13.0975 18.6423C13.2881 18.5605 13.4606 18.4414 13.6047 18.2922L18.2922 13.6047C18.5851 13.3117 18.7497 12.9143 18.7497 12.5C18.7497 12.0857 18.5851 11.6883 18.2922 11.3953Z" fill="var(--fill-0, #F1F5F9)"/>
</svg>
