<svg preserveAspectRatio="none" width="100%" height="100%" overflow="visible" style="display: block;" viewBox="0 0 8 14" fill="none" xmlns="http://www.w3.org/2000/svg">
<path id="Vector" fill-rule="evenodd" clip-rule="evenodd" d="M0.39041 13.5896C0.140431 13.3267 0 12.9702 0 12.5985C0 12.2269 0.140431 11.8704 0.39041 11.6075L4.78139 6.99154L0.39041 2.37557C0.147515 2.11119 0.0131126 1.75711 0.0161507 1.38957C0.0191888 1.02204 0.159424 0.67046 0.406653 0.410564C0.653881 0.150668 0.988322 0.00324677 1.33794 5.29897e-05C1.68756 -0.00314079 2.02439 0.138149 2.27588 0.393489L7.60959 6.0005C7.85957 6.26337 8 6.61984 8 6.99154C8 7.36323 7.85957 7.71971 7.60959 7.98258L2.27588 13.5896C2.02582 13.8524 1.68672 14 1.33314 14C0.979566 14 0.640465 13.8524 0.39041 13.5896Z" fill="var(--fill-0, #6D4C41)"/>
</svg>
