<svg preserveAspectRatio="none" width="100%" height="100%" overflow="visible" style="display: block;" viewBox="0 0 110 110" fill="none" xmlns="http://www.w3.org/2000/svg">
<g id="Frame" clip-path="url(#clip0_0_56)">
<path id="Vector" d="M93.6719 13.1055H86.1314C75.2381 13.1055 64.9902 8.63655 57.2559 0.966795C56.6759 0.322264 55.8376 -1.63913e-06 55 -1.63913e-06C54.1624 -1.63913e-06 53.3241 0.322264 52.7441 0.966795C45.0098 8.63655 34.7619 13.1055 23.8686 13.1055H16.3281C14.5229 13.1055 13.1055 14.5229 13.1055 16.3281V55C13.1055 83.9393 34.182 97.4316 48.1032 106.197C49.9084 107.357 51.6481 108.389 53.1948 109.484C53.7756 109.806 54.3555 110 55 110C55.6445 110 56.2244 109.806 56.8052 109.484C58.2873 108.453 59.9632 107.422 61.7676 106.261C75.7534 97.4963 96.8945 84.0039 96.8945 55V16.3281C96.8945 14.5229 95.4771 13.1055 93.6719 13.1055Z" fill="var(--fill-0, #FF7A00)" fill-opacity="0.8"/>
<path id="Vector_2" d="M96.8945 16.3281V55C96.8945 84.0039 75.7534 97.4963 61.7676 106.261C59.9632 107.422 58.2873 108.453 56.8052 109.484C56.2244 109.806 55.6445 110 55 110V-1.63913e-06C55.8376 -1.63913e-06 56.6759 0.322264 57.2559 0.966795C64.9902 8.63655 75.2381 13.1055 86.1314 13.1055H93.6719C95.4771 13.1055 96.8945 14.5229 96.8945 16.3281Z" fill="var(--fill-0, #FF7A00)" fill-opacity="0.8"/>
<path id="Vector_3" d="M55 25.9961C39.016 25.9961 25.9961 39.0151 25.9961 55C25.9961 70.984 39.016 84.0039 55 84.0039C70.984 84.0039 84.0039 70.984 84.0039 55C84.0039 39.0151 70.984 25.9961 55 25.9961Z" fill="var(--fill-0, #F1F5F9)"/>
<g id="Vector_4">
</g>
<path id="Vector_5" d="M70.1465 50.8105L54.0332 66.9238C53.4533 67.5684 52.6149 67.8906 51.7773 67.8906C50.9398 67.8906 50.1014 67.5684 49.5215 66.9238L39.8535 57.2559C38.5644 56.0314 38.5644 53.9686 39.8535 52.7441C41.078 51.4551 43.1408 51.4551 44.3652 52.7441L51.7773 60.0916L55 56.869L65.6356 46.2988C66.86 45.0098 68.922 45.0098 70.1465 46.2988C71.4355 47.5233 71.4355 49.5861 70.1465 50.8105Z" fill="var(--fill-0, #FF7A00)" fill-opacity="0.8"/>
<path id="Vector_6" d="M70.1465 50.8105L55 65.957V56.869L65.6348 46.2988C66.8592 45.0098 68.922 45.0098 70.1465 46.2988C71.4355 47.5233 71.4355 49.5861 70.1465 50.8105Z" fill="var(--fill-0, #FF7A00)" fill-opacity="0.8"/>
</g>
<defs>
<clipPath id="clip0_0_56">
<rect width="110" height="110" fill="white"/>
</clipPath>
</defs>
</svg>
